<svg width="59" height="45" viewBox="0 0 59 45" fill="none" xmlns="http://www.w3.org/2000/svg">
<path d="M59 24.4565C59 27.1579 56.7987 29.3478 54.0833 29.3478L34.4167 29.3478C31.7013 29.3478 29.5 27.1579 29.5 24.4565L29.5 4.8913C29.5 2.18991 31.7013 -2.36163e-07 34.4167 0L54.0833 1.71045e-06C56.7987 1.94661e-06 59 2.18991 59 4.89131V24.4565Z" fill="white"/>
<path d="M34.4167 40.1087C34.4167 42.8101 32.2154 45 29.5 45H19.6667C16.9513 45 14.75 42.8101 14.75 40.1087L14.75 30.3261C14.75 27.6247 16.9513 25.4348 19.6667 25.4348L29.5 25.4348C32.2154 25.4348 34.4167 27.6247 34.4167 30.3261V40.1087Z" fill="white"/>
<path d="M19.6667 24.4565C19.6667 27.1579 17.4654 29.3478 14.75 29.3478L4.91667 29.3478C2.20127 29.3478 -2.37388e-07 27.1579 0 24.4565L8.59657e-07 14.6739C1.09705e-06 11.9725 2.20127 9.78261 4.91667 9.78261L14.75 9.78261C17.4654 9.78261 19.6667 11.9725 19.6667 14.6739V24.4565Z" fill="white"/>
</svg>
