<svg width="154" height="145" viewBox="0 0 154 145" fill="none" xmlns="http://www.w3.org/2000/svg">
<path d="M68.144 41.2L60.872 58H57.032L49.784 41.2H53.984L59.096 53.2L64.28 41.2H68.144ZM73.5298 44.896C75.5298 44.896 77.0658 45.376 78.1378 46.336C79.2098 47.28 79.7458 48.712 79.7458 50.632V58H76.2418V56.392C75.5378 57.592 74.2258 58.192 72.3058 58.192C71.3138 58.192 70.4498 58.024 69.7138 57.688C68.9938 57.352 68.4418 56.888 68.0578 56.296C67.6738 55.704 67.4818 55.032 67.4818 54.28C67.4818 53.08 67.9298 52.136 68.8258 51.448C69.7378 50.76 71.1378 50.416 73.0258 50.416H76.0018C76.0018 49.6 75.7538 48.976 75.2578 48.544C74.7618 48.096 74.0178 47.872 73.0258 47.872C72.3378 47.872 71.6578 47.984 70.9858 48.208C70.3298 48.416 69.7698 48.704 69.3058 49.072L67.9618 46.456C68.6658 45.96 69.5058 45.576 70.4818 45.304C71.4738 45.032 72.4898 44.896 73.5298 44.896ZM73.2418 55.672C73.8818 55.672 74.4498 55.528 74.9458 55.24C75.4418 54.936 75.7938 54.496 76.0018 53.92V52.6H73.4338C71.8978 52.6 71.1298 53.104 71.1298 54.112C71.1298 54.592 71.3138 54.976 71.6818 55.264C72.0658 55.536 72.5858 55.672 73.2418 55.672ZM89.5149 58.192C88.1389 58.192 86.8989 57.912 85.7949 57.352C84.7069 56.776 83.8509 55.984 83.2269 54.976C82.6189 53.968 82.3149 52.824 82.3149 51.544C82.3149 50.264 82.6189 49.12 83.2269 48.112C83.8509 47.104 84.7069 46.32 85.7949 45.76C86.8989 45.184 88.1389 44.896 89.5149 44.896C90.8749 44.896 92.0589 45.184 93.0669 45.76C94.0909 46.32 94.8349 47.128 95.2989 48.184L92.3949 49.744C91.7229 48.56 90.7549 47.968 89.4909 47.968C88.5149 47.968 87.7069 48.288 87.0669 48.928C86.4269 49.568 86.1069 50.44 86.1069 51.544C86.1069 52.648 86.4269 53.52 87.0669 54.16C87.7069 54.8 88.5149 55.12 89.4909 55.12C90.7709 55.12 91.7389 54.528 92.3949 53.344L95.2989 54.928C94.8349 55.952 94.0909 56.752 93.0669 57.328C92.0589 57.904 90.8749 58.192 89.5149 58.192ZM103.531 58.192C102.155 58.192 100.915 57.912 99.8105 57.352C98.7225 56.776 97.8665 55.984 97.2425 54.976C96.6345 53.968 96.3305 52.824 96.3305 51.544C96.3305 50.264 96.6345 49.12 97.2425 48.112C97.8665 47.104 98.7225 46.32 99.8105 45.76C100.915 45.184 102.155 44.896 103.531 44.896C104.891 44.896 106.075 45.184 107.083 45.76C108.107 46.32 108.851 47.128 109.315 48.184L106.411 49.744C105.739 48.56 104.771 47.968 103.507 47.968C102.531 47.968 101.723 48.288 101.083 48.928C100.443 49.568 100.123 50.44 100.123 51.544C100.123 52.648 100.443 53.52 101.083 54.16C101.723 54.8 102.531 55.12 103.507 55.12C104.787 55.12 105.755 54.528 106.411 53.344L109.315 54.928C108.851 55.952 108.107 56.752 107.083 57.328C106.075 57.904 104.891 58.192 103.531 58.192ZM111.47 45.088H115.214V58H111.47V45.088ZM113.342 43.288C112.654 43.288 112.094 43.088 111.662 42.688C111.23 42.288 111.014 41.792 111.014 41.2C111.014 40.608 111.23 40.112 111.662 39.712C112.094 39.312 112.654 39.112 113.342 39.112C114.03 39.112 114.59 39.304 115.022 39.688C115.454 40.072 115.67 40.552 115.67 41.128C115.67 41.752 115.454 42.272 115.022 42.688C114.59 43.088 114.03 43.288 113.342 43.288ZM126.537 44.896C128.137 44.896 129.425 45.376 130.401 46.336C131.393 47.296 131.889 48.72 131.889 50.608V58H128.145V51.184C128.145 50.16 127.921 49.4 127.473 48.904C127.025 48.392 126.377 48.136 125.529 48.136C124.585 48.136 123.833 48.432 123.273 49.024C122.713 49.6 122.433 50.464 122.433 51.616V58H118.689V45.088H122.265V46.6C122.761 46.056 123.377 45.64 124.113 45.352C124.849 45.048 125.657 44.896 126.537 44.896ZM148.071 51.592C148.071 51.64 148.047 51.976 147.999 52.6H138.231C138.407 53.4 138.823 54.032 139.479 54.496C140.135 54.96 140.951 55.192 141.927 55.192C142.599 55.192 143.191 55.096 143.703 54.904C144.231 54.696 144.719 54.376 145.167 53.944L147.159 56.104C145.943 57.496 144.167 58.192 141.831 58.192C140.375 58.192 139.087 57.912 137.967 57.352C136.847 56.776 135.983 55.984 135.375 54.976C134.767 53.968 134.463 52.824 134.463 51.544C134.463 50.28 134.759 49.144 135.351 48.136C135.959 47.112 136.783 46.32 137.823 45.76C138.879 45.184 140.055 44.896 141.351 44.896C142.615 44.896 143.759 45.168 144.783 45.712C145.807 46.256 146.607 47.04 147.183 48.064C147.775 49.072 148.071 50.248 148.071 51.592ZM141.375 47.728C140.527 47.728 139.815 47.968 139.239 48.448C138.663 48.928 138.311 49.584 138.183 50.416H144.543C144.415 49.6 144.063 48.952 143.487 48.472C142.911 47.976 142.207 47.728 141.375 47.728ZM63.824 78.288C64.8 78.56 65.568 79.056 66.128 79.776C66.688 80.48 66.968 81.376 66.968 82.464C66.968 83.92 66.416 85.04 65.312 85.824C64.224 86.608 62.632 87 60.536 87H52.52V70.2H60.056C61.976 70.2 63.456 70.584 64.496 71.352C65.552 72.12 66.08 73.184 66.08 74.544C66.08 75.424 65.872 76.184 65.456 76.824C65.056 77.464 64.512 77.952 63.824 78.288ZM54.92 72.144V77.52H59.84C61.072 77.52 62.016 77.296 62.672 76.848C63.344 76.384 63.68 75.712 63.68 74.832C63.68 73.952 63.344 73.288 62.672 72.84C62.016 72.376 61.072 72.144 59.84 72.144H54.92ZM60.44 85.056C61.8 85.056 62.824 84.832 63.512 84.384C64.2 83.936 64.544 83.232 64.544 82.272C64.544 80.4 63.176 79.464 60.44 79.464H54.92V85.056H60.44ZM75.7961 87.144C74.5321 87.144 73.3961 86.864 72.3881 86.304C71.3801 85.744 70.5881 84.976 70.0121 84C69.4521 83.008 69.1721 81.888 69.1721 80.64C69.1721 79.392 69.4521 78.28 70.0121 77.304C70.5881 76.312 71.3801 75.544 72.3881 75C73.3961 74.44 74.5321 74.16 75.7961 74.16C77.0601 74.16 78.1881 74.44 79.1801 75C80.1881 75.544 80.9721 76.312 81.5321 77.304C82.1081 78.28 82.3961 79.392 82.3961 80.64C82.3961 81.888 82.1081 83.008 81.5321 84C80.9721 84.976 80.1881 85.744 79.1801 86.304C78.1881 86.864 77.0601 87.144 75.7961 87.144ZM75.7961 85.128C76.6121 85.128 77.3401 84.944 77.9801 84.576C78.6361 84.192 79.1481 83.664 79.5161 82.992C79.8841 82.304 80.0681 81.52 80.0681 80.64C80.0681 79.76 79.8841 78.984 79.5161 78.312C79.1481 77.624 78.6361 77.096 77.9801 76.728C77.3401 76.36 76.6121 76.176 75.7961 76.176C74.9801 76.176 74.2441 76.36 73.5881 76.728C72.9481 77.096 72.4361 77.624 72.0521 78.312C71.6841 78.984 71.5001 79.76 71.5001 80.64C71.5001 81.52 71.6841 82.304 72.0521 82.992C72.4361 83.664 72.9481 84.192 73.5881 84.576C74.2441 84.944 74.9801 85.128 75.7961 85.128ZM91.0304 87.144C89.7664 87.144 88.6304 86.864 87.6224 86.304C86.6144 85.744 85.8224 84.976 85.2464 84C84.6864 83.008 84.4064 81.888 84.4064 80.64C84.4064 79.392 84.6864 78.28 85.2464 77.304C85.8224 76.312 86.6144 75.544 87.6224 75C88.6304 74.44 89.7664 74.16 91.0304 74.16C92.2944 74.16 93.4224 74.44 94.4144 75C95.4224 75.544 96.2064 76.312 96.7664 77.304C97.3424 78.28 97.6304 79.392 97.6304 80.64C97.6304 81.888 97.3424 83.008 96.7664 84C96.2064 84.976 95.4224 85.744 94.4144 86.304C93.4224 86.864 92.2944 87.144 91.0304 87.144ZM91.0304 85.128C91.8464 85.128 92.5744 84.944 93.2144 84.576C93.8704 84.192 94.3824 83.664 94.7504 82.992C95.1184 82.304 95.3024 81.52 95.3024 80.64C95.3024 79.76 95.1184 78.984 94.7504 78.312C94.3824 77.624 93.8704 77.096 93.2144 76.728C92.5744 76.36 91.8464 76.176 91.0304 76.176C90.2144 76.176 89.4784 76.36 88.8224 76.728C88.1824 77.096 87.6704 77.624 87.2864 78.312C86.9184 78.984 86.7344 79.76 86.7344 80.64C86.7344 81.52 86.9184 82.304 87.2864 82.992C87.6704 83.664 88.1824 84.192 88.8224 84.576C89.4784 84.944 90.2144 85.128 91.0304 85.128ZM105.761 81.072L103.121 83.52V87H100.817V69.192H103.121V80.616L110.057 74.28H112.841L107.489 79.536L113.369 87H110.537L105.761 81.072ZM115.442 74.28H117.746V87H115.442V74.28ZM116.594 71.832C116.146 71.832 115.77 71.688 115.466 71.4C115.178 71.112 115.034 70.76 115.034 70.344C115.034 69.928 115.178 69.576 115.466 69.288C115.77 68.984 116.146 68.832 116.594 68.832C117.042 68.832 117.41 68.976 117.698 69.264C118.002 69.536 118.154 69.88 118.154 70.296C118.154 70.728 118.002 71.096 117.698 71.4C117.41 71.688 117.042 71.832 116.594 71.832ZM128.937 74.16C130.553 74.16 131.833 74.632 132.777 75.576C133.737 76.504 134.217 77.872 134.217 79.68V87H131.913V79.944C131.913 78.712 131.617 77.784 131.025 77.16C130.433 76.536 129.585 76.224 128.481 76.224C127.233 76.224 126.249 76.592 125.529 77.328C124.809 78.048 124.449 79.088 124.449 80.448V87H122.145V74.28H124.353V76.2C124.817 75.544 125.441 75.04 126.225 74.688C127.025 74.336 127.929 74.16 128.937 74.16ZM150.719 74.28V85.272C150.719 87.496 150.167 89.136 149.063 90.192C147.959 91.264 146.311 91.8 144.119 91.8C142.919 91.8 141.775 91.632 140.687 91.296C139.599 90.976 138.719 90.512 138.047 89.904L139.151 88.128C139.743 88.64 140.471 89.04 141.335 89.328C142.215 89.632 143.119 89.784 144.047 89.784C145.535 89.784 146.631 89.432 147.335 88.728C148.055 88.024 148.415 86.952 148.415 85.512V84.504C147.871 85.16 147.199 85.656 146.399 85.992C145.615 86.312 144.759 86.472 143.831 86.472C142.615 86.472 141.511 86.216 140.519 85.704C139.543 85.176 138.775 84.448 138.215 83.52C137.655 82.576 137.375 81.504 137.375 80.304C137.375 79.104 137.655 78.04 138.215 77.112C138.775 76.168 139.543 75.44 140.519 74.928C141.511 74.416 142.615 74.16 143.831 74.16C144.791 74.16 145.679 74.336 146.495 74.688C147.327 75.04 148.007 75.56 148.535 76.248V74.28H150.719ZM144.095 84.456C144.927 84.456 145.671 84.28 146.327 83.928C146.999 83.576 147.519 83.088 147.887 82.464C148.271 81.824 148.463 81.104 148.463 80.304C148.463 79.072 148.055 78.08 147.239 77.328C146.423 76.56 145.375 76.176 144.095 76.176C142.799 76.176 141.743 76.56 140.927 77.328C140.111 78.08 139.703 79.072 139.703 80.304C139.703 81.104 139.887 81.824 140.255 82.464C140.639 83.088 141.159 83.576 141.815 83.928C142.487 84.28 143.247 84.456 144.095 84.456ZM57.416 116.192C56.152 116.192 54.928 116 53.744 115.616C52.576 115.216 51.656 114.704 50.984 114.08L51.872 112.208C52.512 112.784 53.328 113.256 54.32 113.624C55.328 113.976 56.36 114.152 57.416 114.152C58.808 114.152 59.848 113.92 60.536 113.456C61.224 112.976 61.568 112.344 61.568 111.56C61.568 110.984 61.376 110.52 60.992 110.168C60.624 109.8 60.16 109.52 59.6 109.328C59.056 109.136 58.28 108.92 57.272 108.68C56.008 108.376 54.984 108.072 54.2 107.768C53.432 107.464 52.768 107 52.208 106.376C51.664 105.736 51.392 104.88 51.392 103.808C51.392 102.912 51.624 102.104 52.088 101.384C52.568 100.664 53.288 100.088 54.248 99.656C55.208 99.224 56.4 99.008 57.824 99.008C58.816 99.008 59.792 99.136 60.752 99.392C61.712 99.648 62.536 100.016 63.224 100.496L62.432 102.416C61.728 101.968 60.976 101.632 60.176 101.408C59.376 101.168 58.592 101.048 57.824 101.048C56.464 101.048 55.44 101.296 54.752 101.792C54.08 102.288 53.744 102.928 53.744 103.712C53.744 104.288 53.936 104.76 54.32 105.128C54.704 105.48 55.176 105.76 55.736 105.968C56.312 106.16 57.088 106.368 58.064 106.592C59.328 106.896 60.344 107.2 61.112 107.504C61.88 107.808 62.536 108.272 63.08 108.896C63.64 109.52 63.92 110.36 63.92 111.416C63.92 112.296 63.68 113.104 63.2 113.84C62.72 114.56 61.992 115.136 61.016 115.568C60.04 115.984 58.84 116.192 57.416 116.192ZM78.1119 103.28L71.9439 117.272C71.3999 118.568 70.7599 119.48 70.0239 120.008C69.3039 120.536 68.4319 120.8 67.4079 120.8C66.7839 120.8 66.1759 120.696 65.5839 120.488C65.0079 120.296 64.5279 120.008 64.1439 119.624L65.1279 117.896C65.7839 118.52 66.5439 118.832 67.4079 118.832C67.9679 118.832 68.4319 118.68 68.7999 118.376C69.1839 118.088 69.5279 117.584 69.8319 116.864L70.2399 115.976L64.6239 103.28H67.0239L71.4639 113.456L75.8559 103.28H78.1119ZM83.7461 116.144C82.7061 116.144 81.7061 116.008 80.7461 115.736C79.7861 115.448 79.0341 115.088 78.4901 114.656L79.4501 112.832C80.0101 113.232 80.6901 113.552 81.4901 113.792C82.2901 114.032 83.0981 114.152 83.9141 114.152C85.9301 114.152 86.9381 113.576 86.9381 112.424C86.9381 112.04 86.8021 111.736 86.5301 111.512C86.2581 111.288 85.9141 111.128 85.4981 111.032C85.0981 110.92 84.5221 110.8 83.7701 110.672C82.7461 110.512 81.9061 110.328 81.2501 110.12C80.6101 109.912 80.0581 109.56 79.5941 109.064C79.1301 108.568 78.8981 107.872 78.8981 106.976C78.8981 105.824 79.3781 104.904 80.3381 104.216C81.2981 103.512 82.5861 103.16 84.2021 103.16C85.0501 103.16 85.8981 103.264 86.7461 103.472C87.5941 103.68 88.2901 103.96 88.8341 104.312L87.8501 106.136C86.8101 105.464 85.5861 105.128 84.1781 105.128C83.2021 105.128 82.4581 105.288 81.9461 105.608C81.4341 105.928 81.1781 106.352 81.1781 106.88C81.1781 107.296 81.3221 107.624 81.6101 107.864C81.8981 108.104 82.2501 108.28 82.6661 108.392C83.0981 108.504 83.6981 108.632 84.4661 108.776C85.4901 108.952 86.3141 109.144 86.9381 109.352C87.5781 109.544 88.1221 109.88 88.5701 110.36C89.0181 110.84 89.2421 111.512 89.2421 112.376C89.2421 113.528 88.7461 114.448 87.7541 115.136C86.7781 115.808 85.4421 116.144 83.7461 116.144ZM99.2735 115.256C98.9375 115.544 98.5215 115.768 98.0255 115.928C97.5295 116.072 97.0175 116.144 96.4895 116.144C95.2095 116.144 94.2175 115.8 93.5135 115.112C92.8095 114.424 92.4575 113.44 92.4575 112.16V105.176H90.2975V103.28H92.4575V100.496H94.7615V103.28H98.4095V105.176H94.7615V112.064C94.7615 112.752 94.9295 113.28 95.2655 113.648C95.6175 114.016 96.1135 114.2 96.7535 114.2C97.4575 114.2 98.0575 114 98.5535 113.6L99.2735 115.256ZM113.133 109.712C113.133 109.888 113.117 110.12 113.085 110.408H102.765C102.909 111.528 103.397 112.432 104.229 113.12C105.077 113.792 106.125 114.128 107.373 114.128C108.893 114.128 110.117 113.616 111.045 112.592L112.317 114.08C111.741 114.752 111.021 115.264 110.157 115.616C109.309 115.968 108.357 116.144 107.301 116.144C105.957 116.144 104.765 115.872 103.725 115.328C102.685 114.768 101.877 113.992 101.301 113C100.741 112.008 100.461 110.888 100.461 109.64C100.461 108.408 100.733 107.296 101.277 106.304C101.837 105.312 102.597 104.544 103.557 104C104.533 103.44 105.629 103.16 106.845 103.16C108.061 103.16 109.141 103.44 110.085 104C111.045 104.544 111.789 105.312 112.317 106.304C112.861 107.296 113.133 108.432 113.133 109.712ZM106.845 105.104C105.741 105.104 104.813 105.44 104.061 106.112C103.325 106.784 102.893 107.664 102.765 108.752H110.925C110.797 107.68 110.357 106.808 109.605 106.136C108.869 105.448 107.949 105.104 106.845 105.104ZM132.244 103.16C133.844 103.16 135.108 103.624 136.036 104.552C136.98 105.48 137.452 106.856 137.452 108.68V116H135.148V108.944C135.148 107.712 134.86 106.784 134.284 106.16C133.724 105.536 132.916 105.224 131.86 105.224C130.692 105.224 129.764 105.592 129.076 106.328C128.388 107.048 128.044 108.088 128.044 109.448V116H125.74V108.944C125.74 107.712 125.452 106.784 124.876 106.16C124.316 105.536 123.508 105.224 122.452 105.224C121.284 105.224 120.356 105.592 119.668 106.328C118.98 107.048 118.636 108.088 118.636 109.448V116H116.332V103.28H118.54V105.176C119.004 104.52 119.612 104.024 120.364 103.688C121.116 103.336 121.972 103.16 122.932 103.16C123.924 103.16 124.804 103.36 125.572 103.76C126.34 104.16 126.932 104.744 127.348 105.512C127.828 104.776 128.492 104.2 129.34 103.784C130.204 103.368 131.172 103.16 132.244 103.16Z" fill="#006D7C"/>
<path d="M59 24.4565C59 27.1579 56.7987 29.3478 54.0833 29.3478L34.4167 29.3478C31.7013 29.3478 29.5 27.1579 29.5 24.4565L29.5 4.8913C29.5 2.18991 31.7013 -2.36163e-07 34.4167 0L54.0833 1.71045e-06C56.7987 1.94661e-06 59 2.18991 59 4.89131V24.4565Z" fill="#006D7C"/>
<path d="M34.4167 40.1087C34.4167 42.8101 32.2154 45 29.5 45H19.6667C16.9513 45 14.75 42.8101 14.75 40.1087L14.75 30.3261C14.75 27.6247 16.9513 25.4348 19.6667 25.4348L29.5 25.4348C32.2154 25.4348 34.4167 27.6247 34.4167 30.3261V40.1087Z" fill="#006D7C"/>
<path d="M19.6667 24.4565C19.6667 27.1579 17.4654 29.3478 14.75 29.3478L4.91667 29.3478C2.20127 29.3478 -2.37388e-07 27.1579 0 24.4565L8.59657e-07 14.6739C1.09705e-06 11.9725 2.20127 9.78261 4.91667 9.78261L14.75 9.78261C17.4654 9.78261 19.6667 11.9725 19.6667 14.6739V24.4565Z" fill="#006D7C"/>
</svg>
