<svg width="129" height="45" viewBox="0 0 129 45" fill="none" xmlns="http://www.w3.org/2000/svg">
<path d="M87.476 9.064L79.052 28H76.424L68.036 9.064H70.7L77.792 25.192L84.956 9.064H87.476ZM100.832 8.92C102.608 8.92 104.216 9.328 105.656 10.144C107.096 10.936 108.224 12.064 109.04 13.528C109.856 14.992 110.264 16.66 110.264 18.532C110.264 20.404 109.856 22.072 109.04 23.536C108.224 25 107.096 26.14 105.656 26.956C104.216 27.772 102.608 28.18 100.832 28.18C99.2477 28.18 97.8197 27.844 96.5477 27.172C95.2997 26.5 94.2917 25.528 93.5237 24.256V28H91.0757V1.288H93.6317V12.664C94.4237 11.44 95.4317 10.516 96.6557 9.892C97.9037 9.244 99.2957 8.92 100.832 8.92ZM100.652 25.912C101.972 25.912 103.172 25.612 104.252 25.012C105.332 24.388 106.172 23.512 106.772 22.384C107.396 21.256 107.708 19.972 107.708 18.532C107.708 17.092 107.396 15.808 106.772 14.68C106.172 13.552 105.332 12.688 104.252 12.088C103.172 11.464 101.972 11.152 100.652 11.152C99.3077 11.152 98.0957 11.464 97.0157 12.088C95.9597 12.688 95.1197 13.552 94.4957 14.68C93.8957 15.808 93.5957 17.092 93.5957 18.532C93.5957 19.972 93.8957 21.256 94.4957 22.384C95.1197 23.512 95.9597 24.388 97.0157 25.012C98.0957 25.612 99.3077 25.912 100.652 25.912ZM120.55 28.18C119.014 28.18 117.538 27.964 116.122 27.532C114.73 27.076 113.638 26.512 112.846 25.84L113.998 23.824C114.79 24.448 115.786 24.964 116.986 25.372C118.186 25.756 119.434 25.948 120.73 25.948C122.458 25.948 123.73 25.684 124.546 25.156C125.386 24.604 125.806 23.836 125.806 22.852C125.806 22.156 125.578 21.616 125.122 21.232C124.666 20.824 124.09 20.524 123.394 20.332C122.698 20.116 121.774 19.912 120.622 19.72C119.086 19.432 117.85 19.144 116.914 18.856C115.978 18.544 115.174 18.028 114.502 17.308C113.854 16.588 113.53 15.592 113.53 14.32C113.53 12.736 114.19 11.44 115.51 10.432C116.83 9.424 118.666 8.92 121.018 8.92C122.242 8.92 123.466 9.088 124.69 9.424C125.914 9.736 126.922 10.156 127.714 10.684L126.598 12.736C125.038 11.656 123.178 11.116 121.018 11.116C119.386 11.116 118.15 11.404 117.31 11.98C116.494 12.556 116.086 13.312 116.086 14.248C116.086 14.968 116.314 15.544 116.77 15.976C117.25 16.408 117.838 16.732 118.534 16.948C119.23 17.14 120.19 17.344 121.414 17.56C122.926 17.848 124.138 18.136 125.05 18.424C125.962 18.712 126.742 19.204 127.39 19.9C128.038 20.596 128.362 21.556 128.362 22.78C128.362 24.436 127.666 25.756 126.274 26.74C124.906 27.7 122.998 28.18 120.55 28.18Z" fill="#006D7C"/>
<path d="M59 24.4565C59 27.1579 56.7987 29.3478 54.0833 29.3478L34.4167 29.3478C31.7013 29.3478 29.5 27.1579 29.5 24.4565L29.5 4.8913C29.5 2.18991 31.7013 -2.36163e-07 34.4167 0L54.0833 1.71045e-06C56.7987 1.94661e-06 59 2.18991 59 4.89131V24.4565Z" fill="#006D7C"/>
<path d="M34.4167 40.1087C34.4167 42.8101 32.2154 45 29.5 45H19.6667C16.9513 45 14.75 42.8101 14.75 40.1087L14.75 30.3261C14.75 27.6247 16.9513 25.4348 19.6667 25.4348L29.5 25.4348C32.2154 25.4348 34.4167 27.6247 34.4167 30.3261V40.1087Z" fill="#006D7C"/>
<path d="M19.6667 24.4565C19.6667 27.1579 17.4654 29.3478 14.75 29.3478L4.91667 29.3478C2.20127 29.3478 -2.37388e-07 27.1579 0 24.4565L8.59657e-07 14.6739C1.09705e-06 11.9725 2.20127 9.78261 4.91667 9.78261L14.75 9.78261C17.4654 9.78261 19.6667 11.9725 19.6667 14.6739V24.4565Z" fill="#006D7C"/>
</svg>
